<svg version="1.1" xmlns="http://www.w3.org/2000/svg" xmlns:xlink="http://www.w3.org/1999/xlink"
     viewBox="0 0 164.3334961 80" enable-background="new 0 0 164.3334961 80"
	 xml:space="preserve">
<g>
	<g>
		<path fill="none" stroke="#393433" stroke-width="1.4" stroke-miterlimit="10" d="M38.9487305,41.1582031l3.5722656,2.03125
			l2.4335938-3.3920898h4.7275391c1.9111328,2.284668,2.6533203,5.5014648,2.6533203,5.5014648h9.4785156
			c0,0,0.5878906-2.3203125,0.5878906-5.5014648"/>
		<path fill="none" stroke="#393433" stroke-width="1.4" stroke-miterlimit="10" d="M42.5209961,43.1894531
			c0,0,0.5068359,2.0898438,0.3457031,3.7949219L41.3588867,48.0625"/>
		<path fill="none" stroke="#393433" stroke-width="1.4" stroke-miterlimit="10" d="M52.3354492,45.2988281
			c0,0-1.9541016,2.5664062-4.9384766,4.0292969l-4.5302734-2.34375"/>
		<path fill="none" stroke="#393433" stroke-width="1.4" stroke-miterlimit="10" d="M47.3969727,49.328125l-1.7470703,6.1660156
			l5.0244141,8.6210938c10.9853516-1.1875,16.2509766-6.8085938,16.2509766-6.8085938s-0.9111328-7.7460938-5.1113281-12.0078125"/>
	</g>
	<g>
		<path fill="none" stroke="#393433" stroke-width="1.4" stroke-miterlimit="10" d="M38.9487305,38.4389648l3.5722656-2.0361328
			l2.4335938,3.3945312h4.7275391c1.9111328-2.2832031,2.6533203-5.5,2.6533203-5.5h9.4785156
			c0,0,0.5878906,2.3154297,0.5878906,5.5"/>
		<path fill="none" stroke="#393433" stroke-width="1.4" stroke-miterlimit="10" d="M42.5209961,36.402832
			c0,0,0.5068359-2.0859375,0.3457031-3.793457l-1.5078125-1.0751953"/>
		<path fill="none" stroke="#393433" stroke-width="1.4" stroke-miterlimit="10" d="M52.3354492,34.2973633
			c0,0-1.9541016-2.5683594-4.9384766-4.0302734l-4.5302734,2.3422852"/>
		<path fill="none" stroke="#393433" stroke-width="1.4" stroke-miterlimit="10" d="M47.3969727,30.2670898l-1.7470703-6.1625977
			l5.0244141-8.6254883c10.9853516,1.1860352,16.2509766,6.809082,16.2509766,6.809082s-0.9111328,7.7451172-5.1113281,12.0092773"
			/>
	</g>
	<g>
		<path fill="none" stroke="#393433" stroke-width="1.4" stroke-miterlimit="10" d="M34.222168,41.1660156l-3.5488281,2.0761719
			l1.7246094,3.8066406l-2.3642578,4.0917969c-2.9345703,0.5175781-6.0908203-0.4492188-6.0908203-0.4492188l-4.7412109,8.2089844
			c0,0,1.7119141,1.6640625,4.46875,3.2597656"/>
		<path fill="none" stroke="#393433" stroke-width="1.4" stroke-miterlimit="10" d="M30.6733398,43.2421875
			c0,0-2.0605469-0.6035156-3.4570312-1.5996094l-0.1796875-1.8374023"/>
		<path fill="none" stroke="#393433" stroke-width="1.4" stroke-miterlimit="10" d="M23.9428711,50.6914062
			c0,0-1.2480469-2.9804688-1.0214844-6.2929688l4.2949219-2.7558594"/>
		<path fill="none" stroke="#393433" stroke-width="1.4" stroke-miterlimit="10" d="M22.9213867,44.3984375l-4.4648438-4.5932617
			l-9.9785156,0.0390625c-4.4648438,10.1049805-2.234375,17.4760742-2.234375,17.4760742s7.1669922,3.0839844,12.9580078,1.5800781"
			/>
	</g>
	<g>
		<path fill="none" stroke="#393433" stroke-width="1.4" stroke-miterlimit="10" d="M36.5795898,42.5292969l-0.0253906,4.1113281
			l-4.15625,0.4082031l-2.3642578,4.0917969c1.0205078,2.796875,3.4335938,5.0488281,3.4335938,5.0488281l-4.7353516,8.2089844
			c0,0-2.3017578-0.6484375-5.0615234-2.2382812"/>
		<path fill="none" stroke="#393433" stroke-width="1.4" stroke-miterlimit="10" d="M36.5541992,46.640625
			c0,0,1.5527344,1.4804688,3.1103516,2.1914062l1.6855469-0.7636719"/>
		<path fill="none" stroke="#393433" stroke-width="1.4" stroke-miterlimit="10" d="M33.4672852,56.1894531
			c0,0,3.2050781-0.4082031,5.9619141-2.2578125l0.2353516-5.0996094"/>
		<path fill="none" stroke="#393433" stroke-width="1.4" stroke-miterlimit="10" d="M39.4291992,53.9316406l6.2128906,1.5664062
			l4.953125,8.6582031c-6.5195312,8.9238281-14.0195312,10.6777344-14.0195312,10.6777344s-6.2529297-4.6660156-7.84375-10.4355469"
			/>
	</g>
	<g>
		<g>
			<path fill="none" stroke="#393433" stroke-width="1.4" stroke-miterlimit="10" d="M34.222168,38.4272461l-3.5488281-2.0742188
				l1.7246094-3.8046875l-2.3642578-4.0981445c-2.9345703-0.5097656-6.0908203,0.4521484-6.0908203,0.4521484l-4.7412109-8.2075195
				c0,0,1.7119141-1.6635742,4.46875-3.2583008"/>
			<path fill="none" stroke="#393433" stroke-width="1.4" stroke-miterlimit="10" d="M30.6733398,36.3530273
				c0,0-2.0605469,0.6035156-3.4570312,1.5996094l-0.1796875,1.8369141"/>
			<path fill="none" stroke="#393433" stroke-width="1.4" stroke-miterlimit="10" d="M23.9428711,28.9023438
				c0,0-1.2480469,2.980957-1.0214844,6.293457l4.2949219,2.7568359"/>
			<path fill="none" stroke="#393433" stroke-width="1.4" stroke-miterlimit="10" d="M22.9213867,35.1958008l-4.4648438,4.5966797
				l-9.9785156-0.0419922c-4.4648438-10.0996094-2.234375-17.4755859-2.234375-17.4755859s7.1669922-3.0825195,12.9580078-1.5800781
				"/>
		</g>
		<g>
			<path fill="none" stroke="#393433" stroke-width="1.4" stroke-miterlimit="10" d="M36.5795898,37.0727539l-0.0253906-4.1162109
				l-4.15625-0.4082031l-2.3642578-4.0981445c1.0205078-2.7939453,3.4335938-5.0463867,3.4335938-5.0463867l-4.7353516-8.2089844
				c0,0-2.3017578,0.6508789-5.0615234,2.2416992"/>
			<path fill="none" stroke="#393433" stroke-width="1.4" stroke-miterlimit="10" d="M36.5541992,32.956543
				c0,0,1.5527344-1.4775391,3.1103516-2.1938477l1.6855469,0.7651367"/>
			<path fill="none" stroke="#393433" stroke-width="1.4" stroke-miterlimit="10" d="M33.4672852,23.4038086
				c0,0,3.2050781,0.4125977,5.9619141,2.2631836l0.2353516,5.0957031"/>
			<path fill="none" stroke="#393433" stroke-width="1.4" stroke-miterlimit="10" d="M39.4291992,25.6669922l6.2128906-1.5708008
				l4.953125-8.6591797C44.0756836,6.5166016,36.5756836,4.765625,36.5756836,4.765625s-6.2529297,4.6616211-7.84375,10.4291992"/>
		</g>
	</g>
	<polygon fill="none" stroke="#393433" stroke-width="1.4" stroke-miterlimit="10" points="34.1967773,38.4204102 
		36.5795898,37.0493164 38.9584961,38.4204102 38.9584961,41.171875 36.5795898,42.5488281 34.1967773,41.171875 	"/>
</g>
<g>
	<path fill="#393433" d="M86.0776367,55.3046875V32.6948242c0-0.453125,0.2714844-0.6796875,0.8154297-0.6796875
		c0.2265625,0,0.4199219,0.0625,0.578125,0.1870117s0.2382812,0.2890625,0.2382812,0.4926758v1.7001953
		c0.9746094-1.722168,2.4931641-2.5839844,4.5556641-2.5839844c1.6777344,0,3.1162109,0.6064453,4.3183594,1.8188477
		c1.2011719,1.2128906,1.8017578,2.6806641,1.8017578,4.4033203v3.9433594c0,1.6552734-0.6064453,3.1171875-1.8183594,4.3867188
		c-1.2128906,1.2695312-2.6240234,1.9042969-4.2333984,1.9042969c-0.9980469,0-1.9160156-0.25-2.7539062-0.7480469
		c-0.8388672-0.4990234-1.4511719-1.1113281-1.8359375-1.8359375v9.6210938c0,0.1816406-0.0849609,0.3515625-0.2548828,0.5097656
		s-0.3691406,0.2382812-0.5957031,0.2382812s-0.4189453-0.0742188-0.5771484-0.2207031
		C86.1567383,55.6835938,86.0776367,55.5097656,86.0776367,55.3046875z M87.7436523,43.1328125
		c0,0.6582031,0.453125,1.4169922,1.359375,2.2783203c0.9072266,0.8613281,1.9384766,1.2919922,3.0947266,1.2919922
		c1.2011719,0,2.2548828-0.4814453,3.1621094-1.4453125c0.90625-0.9628906,1.359375-2.0566406,1.359375-3.28125v-3.9433594
		c0-1.2011719-0.4589844-2.2783203-1.3769531-3.2299805C94.4243164,33.8510742,93.3530273,33.375,92.1293945,33.375
		c-1.15625,0-2.1757812,0.4248047-3.0595703,1.2749023C88.1850586,35.5,87.7436523,36.6279297,87.7436523,38.0332031V43.1328125z"/>
	<path fill="#393433" d="M101.6147461,41.9765625v-4.0454102c0-1.6772461,0.6123047-3.1166992,1.8359375-4.3183594
		c1.2246094-1.2011719,2.6972656-1.8017578,4.4199219-1.8017578c1.6679688,0,3.1103516,0.5898438,4.328125,1.7680664
		c1.2177734,1.1787109,1.8261719,2.640625,1.8261719,4.3857422c0,0.6123047-0.0742188,1.1049805-0.2207031,1.4790039
		s-0.3779297,0.640625-0.6943359,0.7993164c-0.3173828,0.1586914-0.6044922,0.2548828-0.8642578,0.2890625
		c-0.2597656,0.0336914-0.6269531,0.0507812-1.1015625,0.0507812h-7.8632812v1.4287109
		c0,1.4277344,0.5097656,2.5722656,1.5302734,3.4335938c1.0195312,0.8613281,2.3339844,1.2910156,3.9443359,1.2910156
		c0.8134766,0,1.5039062-0.1123047,2.0693359-0.3398438c0.5654297-0.2255859,0.9951172-0.453125,1.2890625-0.6796875
		c0.2949219-0.2265625,0.5205078-0.3398438,0.6787109-0.3398438c0.2001953,0,0.3779297,0.0908203,0.5332031,0.2714844
		c0.1552734,0.1816406,0.2333984,0.3632812,0.2333984,0.5449219c0,0.4306641-0.4677734,0.8837891-1.4042969,1.359375
		c-0.9355469,0.4765625-2.0917969,0.7148438-3.4677734,0.7148438c-2.0859375,0-3.7861328-0.578125-5.1005859-1.734375
		S101.6147461,43.859375,101.6147461,41.9765625z M103.2807617,39.1889648h7.2421875
		c0.7705078,0,1.2802734-0.0791016,1.5302734-0.237793c0.2490234-0.1586914,0.3740234-0.4873047,0.3740234-0.9863281
		c0-1.2011719-0.4316406-2.277832-1.2919922-3.2299805c-0.8623047-0.9516602-1.9501953-1.4277344-3.2646484-1.4277344
		c-1.2695312,0-2.3515625,0.4418945-3.2470703,1.3256836c-0.8955078,0.8842773-1.3427734,1.9379883-1.3427734,3.1621094V39.1889648z
		"/>
	<path fill="#393433" d="M116.9487305,41.9765625v-4.0454102c0-1.6772461,0.6123047-3.1166992,1.8359375-4.3183594
		c1.2246094-1.2011719,2.6972656-1.8017578,4.4199219-1.8017578c1.6679688,0,3.1103516,0.5898438,4.328125,1.7680664
		c1.2177734,1.1787109,1.8261719,2.640625,1.8261719,4.3857422c0,0.6123047-0.0742188,1.1049805-0.2207031,1.4790039
		s-0.3779297,0.640625-0.6943359,0.7993164c-0.3173828,0.1586914-0.6044922,0.2548828-0.8642578,0.2890625
		c-0.2597656,0.0336914-0.6269531,0.0507812-1.1015625,0.0507812h-7.8632812v1.4287109
		c0,1.4277344,0.5097656,2.5722656,1.5302734,3.4335938c1.0195312,0.8613281,2.3339844,1.2910156,3.9443359,1.2910156
		c0.8134766,0,1.5039062-0.1123047,2.0693359-0.3398438c0.5654297-0.2255859,0.9951172-0.453125,1.2890625-0.6796875
		c0.2949219-0.2265625,0.5205078-0.3398438,0.6787109-0.3398438c0.2001953,0,0.3779297,0.0908203,0.5332031,0.2714844
		c0.1552734,0.1816406,0.2333984,0.3632812,0.2333984,0.5449219c0,0.4306641-0.4677734,0.8837891-1.4042969,1.359375
		c-0.9355469,0.4765625-2.0917969,0.7148438-3.4677734,0.7148438c-2.0859375,0-3.7861328-0.578125-5.1005859-1.734375
		S116.9487305,43.859375,116.9487305,41.9765625z M118.6147461,39.1889648h7.2421875
		c0.7705078,0,1.2802734-0.0791016,1.5302734-0.237793c0.2490234-0.1586914,0.3740234-0.4873047,0.3740234-0.9863281
		c0-1.2011719-0.4316406-2.277832-1.2919922-3.2299805c-0.8623047-0.9516602-1.9501953-1.4277344-3.2646484-1.4277344
		c-1.2695312,0-2.3515625,0.4418945-3.2470703,1.3256836c-0.8955078,0.8842773-1.3427734,1.9379883-1.3427734,3.1621094V39.1889648z
		"/>
	<path fill="#393433" d="M133.1665039,47.3144531v-24.581543c0-0.2041016,0.0791016-0.3740234,0.2382812-0.5097656
		c0.1582031-0.1362305,0.3515625-0.2041016,0.578125-0.2041016c0.2490234,0,0.453125,0.0678711,0.6123047,0.2041016
		c0.1582031,0.1357422,0.2373047,0.3056641,0.2373047,0.5097656v24.581543c0,0.1816406-0.0849609,0.3515625-0.2548828,0.5107422
		S134.2094727,48.0625,133.9829102,48.0625s-0.4199219-0.0722656-0.578125-0.2207031
		C133.2456055,47.6953125,133.1665039,47.5195312,133.1665039,47.3144531z"/>
	<path fill="#393433" d="M138.5717773,45.9550781c0-0.1816406,0.0625-0.3574219,0.1875-0.5273438
		c0.1240234-0.1699219,0.265625-0.2548828,0.4248047-0.2548828c0.1357422-0.0224609,0.3173828,0.0576172,0.5439453,0.2382812
		l0.7822266,0.5439453c0.2714844,0.1816406,0.6914062,0.3632812,1.2578125,0.5439453
		c0.5664062,0.1816406,1.2011719,0.2724609,1.9042969,0.2724609c1.2685547,0,2.2099609-0.2441406,2.8222656-0.7314453
		c0.6113281-0.4873047,0.9179688-1.1162109,0.9179688-1.8876953c0-0.9101562-0.2890625-1.6279297-0.8652344-2.1523438
		c-0.5761719-0.5234375-1.2763672-0.9101562-2.0986328-1.1606445c-0.8242188-0.2490234-1.6572266-0.5014648-2.5019531-0.7568359
		s-1.5556641-0.6894531-2.1337891-1.3017578c-0.578125-0.6118164-0.8671875-1.4389648-0.8671875-2.4819336
		c0-1.1782227,0.4365234-2.2211914,1.3095703-3.1279297c0.8720703-0.90625,2.1591797-1.3598633,3.8583984-1.3598633
		c1.0654297,0,2.0576172,0.1645508,2.9755859,0.4931641s1.3769531,0.6743164,1.3769531,1.0366211
		c0,0.1816406-0.0800781,0.3740234-0.2382812,0.578125c-0.1591797,0.2041016-0.3291016,0.3061523-0.5097656,0.3061523
		c-0.0234375,0-0.4199219-0.1533203-1.1904297-0.4589844c-0.7705078-0.3061523-1.5634766-0.4589844-2.3798828-0.4589844
		c-1.2236328,0-2.1367188,0.3056641-2.7363281,0.9174805c-0.6015625,0.6113281-0.9013672,1.2910156-0.9013672,2.0375977
		c0,0.7705078,0.2890625,1.3701172,0.8671875,1.800293c0.5791016,0.4306641,1.2851562,0.7719727,2.1181641,1.0239258
		c0.8339844,0.2524414,1.6728516,0.5063477,2.5175781,0.7617188c0.84375,0.2563477,1.5546875,0.7304688,2.1318359,1.4233398
		c0.5761719,0.6933594,0.8652344,1.6201172,0.8652344,2.7792969c0,1.3144531-0.4648438,2.3457031-1.3945312,3.09375
		s-2.2324219,1.1230469-3.9091797,1.1230469c-1.4511719,0-2.6689453-0.2558594-3.6552734-0.765625
		S138.5717773,46.4765625,138.5717773,45.9550781z"/>
</g>
</svg>
