<svg version="1.1" xmlns="http://www.w3.org/2000/svg" xmlns:xlink="http://www.w3.org/1999/xlink"
     viewBox="0 0 44 80" enable-background="new 0 0 44 80" xml:space="preserve">
<rect fill="#393433" width="44" height="80"/>
<g>
	<path fill="#FFFFFF" d="M9.5405273,22.6191406l1.4560547,0.8408203c0.3134766,0.1806641,0.8251953,0.1806641,1.1376953,0
		l9.2353516-5.3330078c0.3134766-0.1806641,0.8242188-0.1806641,1.1376953,0l9.2368164,5.3330078
		c0.3125,0.1806641,0.8222656,0.1806641,1.1367188,0l1.4550781-0.8408203c0.3144531-0.1796875,0.3144531-0.4755859,0-0.65625
		l-11.8286133-6.8300781c-0.3134766-0.1806641-0.8242188-0.1806641-1.1376953,0L9.5405273,21.9628906
		C9.2270508,22.1435547,9.2270508,22.4394531,9.5405273,22.6191406z M30.2871094,36.9355469l4.0488281-2.3359375
		c0.3144531-0.1816406,0.3144531-0.4765625,0-0.6582031l-14.4223633-8.328125c-0.3134766-0.1796875-0.3134766-0.4755859,0-0.65625
		l1.4560547-0.8398438c0.3134766-0.1806641,0.8242188-0.1806641,1.1376953,0l9.2348633,5.3330078
		c0.3144531,0.1796875,0.8242188,0.1796875,1.1386719,0l1.4550781-0.8417969c0.3144531-0.1806641,0.3144531-0.4755859,0-0.65625
		l-11.8286133-6.8300781c-0.3134766-0.1806641-0.8242188-0.1806641-1.1376953,0L9.5405273,27.9521484
		c-0.3134766,0.1806641-0.3134766,0.4755859,0,0.65625l4.0498047,2.3378906c0.3134766,0.1816406,0.3134766,0.4765625,0,0.6582031
		l-4.0498047,2.3369141c-0.3134766,0.1816406-0.3134766,0.4765625,0,0.6582031l4.0498047,2.3359375
		c0.3134766,0.1796875,0.3134766,0.4765625,0,0.65625l-4.0498047,2.3398438c-0.3134766,0.1796875-0.3134766,0.4746094,0,0.65625
		l11.8291016,6.8300781c0.3134766,0.1796875,0.8242188,0.1796875,1.1376953,0l11.8286133-6.8300781
		c0.3144531-0.1796875,0.3144531-0.4765625,0-0.65625l-4.0488281-2.3398438
		C29.9746094,37.4121094,29.9746094,37.1152344,30.2871094,36.9355469z M18.7768555,40.5898438l-1.4570312,0.8398438
		c-0.3115234,0.1777344-0.8242188,0.1777344-1.1357422,0l-1.4580078-0.8417969c-0.3115234-0.1796875-0.3115234-0.4765625,0-0.65625
		l1.4580078-0.8417969c0.3115234-0.1796875,0.8242188-0.1796875,1.1357422,0l1.4570312,0.8417969
		C19.0893555,40.1132812,19.0893555,40.4082031,18.7768555,40.5898438z M18.7768555,34.5996094l-1.4570312,0.8398438
		c-0.3115234,0.1796875-0.8242188,0.1796875-1.1357422,0l-1.4580078-0.8398438
		c-0.3115234-0.1816406-0.3115234-0.4765625,0-0.6582031l1.4580078-0.8408203c0.3115234-0.1796875,0.8242188-0.1796875,1.1357422,0
		l1.4570312,0.8408203C19.0893555,34.1230469,19.0893555,34.4179688,18.7768555,34.5996094z M18.7768555,28.6083984
		l-1.4570312,0.8417969c-0.3115234,0.1796875-0.8242188,0.1796875-1.1357422,0l-1.4580078-0.8417969
		c-0.3115234-0.1806641-0.3115234-0.4755859,0-0.65625l1.4580078-0.8408203c0.3115234-0.1806641,0.8242188-0.1806641,1.1357422,0
		l1.4570312,0.8408203C19.0893555,28.1328125,19.0893555,28.4277344,18.7768555,28.6083984z M29.1503906,40.5878906
		l-6.6430664,3.8359375c-0.3134766,0.1816406-0.8242188,0.1816406-1.1376953,0l-1.4560547-0.8417969
		c-0.3115234-0.1796875-0.3115234-0.4765625,0-0.65625l6.6430664-3.8359375c0.3144531-0.1796875,0.8242188-0.1796875,1.1367188,0
		l1.4570312,0.8417969C29.4628906,40.1113281,29.4628906,40.40625,29.1503906,40.5878906z M19.9135742,36.9355469
		l1.4560547-0.8398438c0.3134766-0.1796875,0.8242188-0.1796875,1.1376953,0l1.4560547,0.8398438
		c0.3125,0.1796875,0.3125,0.4765625,0,0.65625l-1.4560547,0.8417969c-0.3134766,0.1816406-0.8242188,0.1816406-1.1376953,0
		l-1.4560547-0.8417969C19.6020508,37.4121094,19.6020508,37.1152344,19.9135742,36.9355469z M29.1503906,34.5996094
		l-1.4570312,0.8398438c-0.3125,0.1796875-0.8222656,0.1796875-1.1367188,0l-6.6430664-3.8349609
		c-0.3115234-0.1816406-0.3115234-0.4765625,0-0.6582031l1.4560547-0.8408203c0.3134766-0.1796875,0.8242188-0.1796875,1.1376953,0
		l6.6430664,3.8359375C29.4628906,34.1230469,29.4628906,34.4179688,29.1503906,34.5996094z"/>
	<g>
		<path fill="#FFFFFF" d="M9.0922852,59.3144531v-3.1796875c0-0.9765625,0.2661133-1.6914062,0.7983398-2.1484375
			c0.5317383-0.4550781,1.2255859-0.6835938,2.0820312-0.6835938c0.8798828,0,1.6020508,0.2119141,2.1660156,0.6357422
			c0.5639648,0.4248047,0.8457031,1.0087891,0.8457031,1.7529297c0,0.34375-0.0717773,0.5771484-0.2158203,0.7011719
			s-0.3837891,0.1855469-0.7202148,0.1855469c-0.6157227,0-0.9277344-0.1875-0.9360352-0.5634766
			c0-0.1123047-0.0039062-0.2060547-0.0117188-0.2822266c-0.0083008-0.0761719-0.0322266-0.1699219-0.0722656-0.28125
			c-0.0400391-0.1123047-0.0957031-0.2001953-0.1679688-0.2646484c-0.0717773-0.0634766-0.1777344-0.1220703-0.3178711-0.1738281
			s-0.3061523-0.078125-0.4980469-0.078125c-0.7197266,0-1.0800781,0.4003906-1.0800781,1.2001953v3.1796875
			c0,0.8007812,0.355957,1.2001953,1.0683594,1.2001953c0.7197266,0,1.0795898-0.3994141,1.0795898-1.2001953V58.90625h-0.7080078
			c-0.1757812,0-0.3139648-0.0693359-0.4135742-0.2089844c-0.1000977-0.140625-0.1503906-0.3105469-0.1503906-0.5107422
			c0-0.1835938,0.0522461-0.3496094,0.15625-0.4980469c0.1040039-0.1474609,0.2397461-0.2216797,0.4077148-0.2216797h2.0161133
			c0.1757812,0,0.3139648,0.0585938,0.4140625,0.1738281c0.1000977,0.1162109,0.1499023,0.2539062,0.1499023,0.4140625v1.2597656
			c0,0.9765625-0.2680664,1.6923828-0.8037109,2.1484375c-0.5361328,0.4560547-1.2524414,0.6835938-2.1479492,0.6835938
			c-0.8881836,0-1.6000977-0.2275391-2.1362305-0.6835938S9.0922852,60.2910156,9.0922852,59.3144531z"/>
		<path fill="#FFFFFF" d="M16.1845703,61.4980469v-7.6191406c0-0.1835938,0.0800781-0.3261719,0.2402344-0.4257812
			c0.159668-0.1005859,0.3515625-0.1503906,0.5756836-0.1503906h4.2719727c0.184082,0,0.3242188,0.0800781,0.4199219,0.2402344
			c0.0961914,0.1601562,0.144043,0.3476562,0.144043,0.5644531c0,0.2314453-0.0498047,0.4277344-0.1499023,0.5878906
			s-0.237793,0.2392578-0.4140625,0.2392578h-3.2158203v2.0283203h1.7998047c0.1762695,0,0.3139648,0.0722656,0.4140625,0.2158203
			s0.1499023,0.3154297,0.1499023,0.5166016c0,0.1835938-0.0478516,0.3476562-0.1435547,0.4912109
			c-0.0961914,0.1435547-0.2363281,0.2158203-0.4204102,0.2158203h-1.7998047v2.0410156h3.2158203
			c0.1762695,0,0.3139648,0.0800781,0.4140625,0.2392578c0.1000977,0.1601562,0.1499023,0.3564453,0.1499023,0.5878906
			c0,0.2158203-0.0478516,0.4042969-0.144043,0.5634766c-0.0957031,0.1601562-0.2358398,0.2402344-0.4199219,0.2402344h-4.2719727
			c-0.2241211,0-0.4160156-0.0488281-0.5756836-0.1494141C16.2646484,61.8242188,16.1845703,61.6826172,16.1845703,61.4980469z"/>
		<path fill="#FFFFFF" d="M22.5922852,59.3144531v-3.1796875c0-0.9765625,0.2680664-1.6914062,0.8041992-2.1484375
			c0.5361328-0.4550781,1.2480469-0.6835938,2.1362305-0.6835938c0.8950195,0,1.6118164,0.2285156,2.1479492,0.6835938
			c0.5361328,0.4570312,0.8037109,1.171875,0.8037109,2.1484375v3.1796875c0,0.9765625-0.2675781,1.6923828-0.8037109,2.1484375
			s-1.2529297,0.6835938-2.1479492,0.6835938c-0.8881836,0-1.6000977-0.2275391-2.1362305-0.6835938
			S22.5922852,60.2910156,22.5922852,59.3144531z M24.4643555,59.3144531c0,0.8007812,0.355957,1.2001953,1.0683594,1.2001953
			c0.7192383,0,1.0795898-0.3994141,1.0795898-1.2001953v-3.1796875c0-0.7998047-0.3603516-1.2001953-1.0795898-1.2001953
			c-0.7124023,0-1.0683594,0.4003906-1.0683594,1.2001953V59.3144531z"/>
		<path fill="#FFFFFF" d="M29.8046875,61.4980469v-7.6191406c0-0.1835938,0.0800781-0.3261719,0.2402344-0.4257812
			c0.1591797-0.1005859,0.3515625-0.1503906,0.5751953-0.1503906h4.1640625c0.1845703,0,0.3242188,0.0800781,0.4199219,0.2402344
			c0.0966797,0.1601562,0.1435547,0.3476562,0.1435547,0.5644531c0,0.2314453-0.0488281,0.4277344-0.1494141,0.5878906
			s-0.2382812,0.2392578-0.4140625,0.2392578h-3.1083984v2.0283203h1.8125c0.1757812,0,0.3144531,0.0722656,0.4140625,0.2158203
			s0.1503906,0.3154297,0.1503906,0.5166016c0,0.1835938-0.0488281,0.3476562-0.1445312,0.4912109
			s-0.2363281,0.2158203-0.4199219,0.2158203h-1.8125v3.0957031c0,0.1845703-0.0917969,0.3261719-0.2753906,0.4267578
			s-0.4042969,0.1494141-0.6601562,0.1494141s-0.4765625-0.0488281-0.6601562-0.1494141
			S29.8046875,61.6826172,29.8046875,61.4980469z"/>
	</g>
</g>
</svg>
